<svg xmlns="http://www.w3.org/2000/svg" viewBox="0 0 511.958 511.958" fill="white">
    <path d="M210.624 240.62c10.624-5.345 18.656-11.297 24.16-17.73 9.792-11.583 14.624-26.943 14.624-45.983 0-18.528-4.832-34.368-14.496-47.648-16.128-21.633-43.424-32.705-82.016-33.28H0v312.095h142.56c16.064 0 30.944-1.376 44.704-4.192 13.76-2.848 25.664-8.064 35.744-15.68 8.96-6.624 16.448-14.848 22.4-24.544 9.408-14.657 14.112-31.265 14.112-49.76 0-17.92-4.128-33.185-12.32-45.73-8.288-12.543-20.448-21.727-36.576-27.55zM63.072 150.186h68.864c15.136 0 27.616 1.632 37.408 4.864 11.328 4.705 16.992 14.273 16.992 28.865 0 13.088-4.32 22.24-12.864 27.392-8.608 5.152-19.776 7.744-33.472 7.744H63.072v-68.863zm108.896 198.24c-7.616 3.68-18.336 5.504-32.064 5.504H63.072V270.7h77.888c13.568.095 24.128 1.887 31.68 5.247 13.44 6.08 20.128 17.216 20.128 33.504 0 19.2-6.912 32.13-20.8 38.977zM327.168 110.54h135.584v38.847H327.168zM509.856 263.85c-2.816-18.08-9.024-33.983-18.688-47.71-10.592-15.553-24.032-26.945-40.384-34.145-16.288-7.232-34.624-10.848-55.04-10.816-34.272 0-62.112 10.72-83.648 32-21.472 21.343-32.224 52.03-32.224 92.03 0 42.657 11.872 73.473 35.744 92.385 23.776 18.944 51.232 28.384 82.4 28.384 37.728 0 67.072-11.233 88.032-33.633 13.408-14.144 20.992-28.064 22.656-41.728H446.24c-3.616 6.75-7.808 12.03-12.608 15.87-8.704 7.04-20.032 10.56-33.92 10.56-13.216 0-24.416-2.91-33.76-8.703-15.424-9.28-23.488-25.536-24.512-48.672h170.464c.256-19.936-.384-35.264-2.048-45.824zm-166.88 5.985c2.24-15.008 7.68-26.912 16.32-35.712 8.64-8.768 20.864-13.184 36.512-13.216 14.432 0 26.496 4.128 36.32 12.416 9.696 8.352 15.168 20.48 16.288 36.512h-105.44z"/>
</svg>