<svg height="512" viewBox="0 0 24 24" width="512" xmlns="http://www.w3.org/2000/svg" fill="white">
    <path d="M16.354 23.17l.06-.02C28.627 18.295 25.248 0 12 0 5.35 0 0 5.42 0 12c0 8.327 8.434 14.27 16.354 11.17zM5.28 20.06c.853-1.433 3.61-5.473 8.316-6.867.984 2.51 1.674 5.436 1.742 8.755-3.566 1.2-7.327.392-10.057-1.89zm11.533 1.262c-.13-3.19-.782-6.017-1.71-8.467 2.082-.325 4.492-.108 7.225.987-.58 3.26-2.666 6.002-5.515 7.48zm5.672-9.03c-3.01-1.132-5.663-1.273-7.96-.835-.354-.8-.727-1.57-1.122-2.277 3.523-1.407 5.605-3.122 6.537-4.03 1.645 1.904 2.622 4.37 2.545 7.14zm-3.61-8.21c-.848.807-2.845 2.437-6.26 3.77C10.94 5.204 9.15 3.336 8.017 2.29c3.628-1.494 7.812-.856 10.858 1.792zM6.583 3.022c.856.754 2.735 2.562 4.548 5.358-2.49.802-5.61 1.39-9.408 1.474.604-2.894 2.408-5.346 4.86-6.83zm-5.05 8.338c4.25-.07 7.69-.74 10.408-1.648.377.66.734 1.377 1.077 2.123-4.735 1.508-7.694 5.4-8.827 7.16-1.828-2.04-2.836-4.703-2.658-7.635z"/>
</svg>