<svg xmlns="http://www.w3.org/2000/svg" viewBox="0 0 512 512" fill="white">
    <path d="M270.83 267.947c-10.07-7.34-25.28-18.41-25.473-22.656 0-6.036 13.78-19.71 24.853-30.676 25.515-25.323 60.48-59.99 60.48-107.947.573-35.74-19.044-68.75-50.71-85.333h50.71c5.89 0 10.667-4.776 10.667-10.667S336.58 0 330.69 0H192.023c-9.238.03-18.456.887-27.54 2.56C206.956-5.91 251.564 32 264.556 88.597c13.29 57.323-10.88 111.936-53.867 121.963-4.485 1.033-9.072 1.556-13.675 1.557-38.635 0-76.437-36.267-88.3-87.467C95.64 67.904 119.384 13.888 161.454 3.18 99.52 12.343 53.58 65.39 53.357 128c0 73.408 68.672 99.82 118.1 105.45-10.97 20.707-10.583 45.587 1.025 65.942C107.522 303.98 10.69 332.075 10.69 416c-.764 22.6 7.87 44.503 23.85 60.5C67.758 509.25 126.06 512 156.504 512h14.187c1.813 0 181.333-3.18 181.333-117.333 0-67.563-48.853-103.147-81.194-126.72zm-78.807 222.72c-54.123 0-117.333-22.336-117.333-85.333s73.088-106.667 138.667-106.667c1.914 0 3.794.516 5.44 1.493 9.28 5.504 90.56 55.21 90.56 105.173 0 50.987-60.672 85.334-117.334 85.334zM426.69 298.667c-5.89 0-10.667-4.776-10.667-10.667V160c0-5.89 4.776-10.667 10.667-10.667 5.89 0 10.667 4.776 10.667 10.667v128c0 5.89-4.776 10.667-10.667 10.667zM490.69 234.667h-128c-5.89 0-10.667-4.776-10.667-10.667 0-5.89 4.776-10.667 10.667-10.667h128c5.89 0 10.667 4.776 10.667 10.667 0 5.89-4.776 10.667-10.667 10.667z"/>
</svg>