<svg height="512" viewBox="0 0 24 24" fill="white" width="512" xmlns="http://www.w3.org/2000/svg"><path d="M23.31 14.547c1.737-7.81-5.105-14.905-13.14-13.543C5.808-1.703 0 1.356 0 6.546c0 1.207.333 2.337.912 3.31-1.615 7.83 5.283 14.822 13.31 13.367 5.676 3 11.947-2.984 9.087-8.676zm-7.64 4.71c-2.107.867-5.576.872-7.675-.227-2.993-1.596-3.525-5.19-.943-5.19 1.946 0 1.33 2.27 3.295 3.195.902.417 2.84.46 3.968-.3 1.113-.745 1.01-1.917.406-2.477-1.602-1.48-6.19-.892-8.286-3.483-.91-1.124-1.083-3.107.037-4.545 1.953-2.512 7.68-2.665 10.144-.768 2.274 1.76 1.66 4.096-.175 4.096-2.208 0-1.048-2.888-4.61-2.888-2.584 0-3.6 1.837-1.78 2.73 2.465 1.226 8.75.817 8.75 5.604-.006 1.992-1.227 3.477-3.13 4.253z"/></svg>